<?xml version="1.0" standalone="no"?><!DOCTYPE svg PUBLIC "-//W3C//DTD SVG 1.1//EN" "http://www.w3.org/Graphics/SVG/1.1/DTD/svg11.dtd"><svg t="1693623304157" class="icon" viewBox="0 0 1024 1024" version="1.1" xmlns="http://www.w3.org/2000/svg" p-id="2454" xmlns:xlink="http://www.w3.org/1999/xlink" width="200" height="200"><path d="M953.933479 361.455069 818.884029 138.900283c-5.677444-9.366503-16.48353-14.65999-27.12477-13.343273l-340.421393 38.041435a28.105652 28.105652 0 0 0-14.975347 6.432048l-32.458188 27.364359-94.665366-69.876078c-11.492089-8.474699-27.591662-7.021806-37.300142 3.551858L71.422145 348.248996a28.027837 28.027837 0 0 0-3.290768 33.762619l49.304174 80.168173-5.476762 4.416017c-15.55077 12.52007-25.314541 30.361272-27.426817 50.218504-2.138896 19.857232 3.592814 39.357128 16.099573 54.881277a74.57264 74.57264 0 0 0 28.320668 21.630601 75.288336 75.288336 0 0 0-2.292479 12.021438c-2.138896 19.857232 3.592814 39.357128 16.099573 54.881277 10.811205 13.420065 25.62785 22.493737 42.067352 26.104981-6.027613 22.328891-1.693506 47.151967 13.882862 66.515686 14.261699 17.689667 35.489913 27.838418 58.227334 27.838418 3.501688 0 6.98597-0.263139 10.431344-0.752556-0.622522 17.352808 4.722159 34.999472 16.44667 49.559122C298.076567 847.185243 319.304782 857.332971 342.069848 857.332971c16.977043 0 33.597773-5.868911 46.872446-16.55213l18.235398-14.702994 42.212744 47.711009a30.329531 30.329531 0 0 0 1.975075 2.02934c15.660326 14.454189 35.764314 22.298175 56.938263 22.298175 1.124226 0 2.276097-0.027645 3.427968-0.0686 22.40773-0.89078 43.142432-10.463084 58.39218-26.960949a79.03678 79.03678 0 0 0 15.194458-24.121714c15.825172 12.822116 35.243157 19.336074 56.115059 18.56816 22.435375-0.905115 43.170077-10.477419 58.364536-26.960948 7.541939-8.159342 13.302318-17.539156 17.058953-27.645928 32.281057 15.016302 71.830675 8.255587 97.14624-19.198873 17.361-18.787272 24.492361-43.444478 21.667461-67.058346 16.181484-3.551858 31.513143-11.917001 43.580655-24.999184 31.431232-34.022685 29.318956-87.286224-3.674725-117.688451l-51.210648-52.55501 126.031069-134.180172c8.63852-9.190395 10.092438-23.012847 3.536499-33.791287zM222.406322 497.436255l-51.891532 41.84005c-4.223527 3.401347-8.667189 4.113971-11.629289 4.113971-5.677444 0-10.943286-2.522853-14.508455-6.938871-3.126946-3.853904-4.525573-8.708145-4.004416-13.630985a18.30707 18.30707 0 0 1 6.829315-12.479114l51.919177-41.839026c4.223527-3.414658 8.639544-4.127282 11.62929-4.127282a18.541539 18.541539 0 0 1 14.481834 6.911226c6.444334 7.980162 5.182908 19.704673-2.825924 26.150031zm-39.90593 113.917481a18.30707 18.30707 0 0 1 6.829315-12.479114l51.919177-41.84005c4.223527-3.414658 8.639544-4.127282 11.62929-4.127282a18.537444 18.537444 0 0 1 14.48081 6.911226c6.445358 7.981186 5.183931 19.706721-2.8249 26.152079l-51.891532 41.84005c-4.223527 3.401347-8.667189 4.113971-11.656934 4.113971-5.649799 0-10.915641-2.509543-14.480811-6.93887-3.126946-3.853904-4.525573-8.709169-4.004415-13.63201zm59.954629 106.251652c-6.445358-7.994497-5.183931-19.720031 2.76961-26.137744l51.973443-41.866671c4.195882-3.387013 8.639544-4.100661 11.601644-4.100661 5.677444 0 10.943286 2.509543 14.508455 6.938871 3.126946 3.853904 4.525573 8.708145 4.004416 13.630985a18.30707 18.30707 0 0 1-6.829315 12.479114l-51.919177 41.84005c-4.223527 3.414658-8.639544 4.127282-11.62929 4.127282a18.540515 18.540515 0 0 1-14.479786-6.911226zm111.243093 79.441215c-4.223527 3.401347-8.667189 4.113971-11.62929 4.113971-5.677444 0-10.970931-2.522853-14.508455-6.911226-6.445358-7.994497-5.183931-19.720031 2.76961-26.137744l51.973443-41.853361c4.195882-3.401347 8.639544-4.113971 11.601645-4.113971 5.677444 0 10.943286 2.522853 14.508455 6.92556a18.595805 18.595805 0 0 1 4.004415 13.65863c-0.521158 4.922841-2.934455 9.352169-6.829315 12.479115l-51.890508 41.839026zm484.302878-135.487674c-10.367863 11.190043-27.866063 11.972291-39.165662 1.796919l-54.304829-50.149903c-0.05529-0.027645-0.081911-0.0686-0.137201-0.096245l0-0.013311c-0.246756-0.219111-0.493513-0.452557-0.740269-0.671669l-0.027645 0s0-0.013311-0.081911-0.0686c0 0.027645-0.027645-0.027645-0.054266-0.0686l-0.027645 0c-11.409154-9.55797-28.469131-8.543299-38.672148 2.564833-10.477419 11.409154-9.736126 29.12749 1.617738 39.631529l54.113364 49.930792c0.137201 0.12389 0.274401 0.260067 0.411602 0.383957l10.230662 9.461724c11.299598 10.422129 12.013247 28.085174 1.591118 39.371462-10.394484 11.258643-28.029885 12.013247-39.357128 1.563473l-37.245877-34.380021-1.06996-0.987026-37.300142-34.448622-0.411602-0.356312c-11.354888-10.490729-29.181756-9.81906-39.659175 1.591118-10.531684 11.395844-9.81906 29.155135 1.563473 39.686819l38.288192 35.352713 0.027645 0.01331c5.100997 4.991441 8.036476 11.62929 8.337498 18.787272 0.302046 7.432384-2.331387 14.5361-7.404738 20.007743-5.046731 5.471643-11.903691 8.639544-19.336075 8.941591-7.378118 0.465868-14.508455-2.303742-19.994432-7.363783l-55.347146-51.110308c-0.246756-0.219111-0.493513-0.452557-0.740269-0.671669l-24.190314-22.311485c-11.382533-10.531684-29.181756-9.791415-39.686819 1.591118-10.50404 11.409154-9.791415 29.168445 1.617738 39.686819l24.601917 22.709776c11.492089 11.052842 13.165118 30.470827 3.400323 41.057802-5.046731 5.458333-11.930312 8.639544-19.363719 8.927256-7.103716 0.274401-13.768186-2.043675-19.116963-6.595869l-40.15883-45.382693c10.080151-11.469563 16.404691-25.723071 18.053146-41.217528 2.138896-19.857232-3.592814-39.343817-16.099573-54.881277-16.387285-20.348697-43.343114-29.630217-68.662774-26.482794 0.825252-18.207753-4.928984-35.869775-16.442574-50.161166-10.717008-13.302318-25.954469-21.866095-42.294655-25.331947 6.350137-22.521382 2.113299-47.690531-13.655559-67.28872-7.634089-9.464796-17.555538-16.518342-28.526469-21.050058 6.43-22.571552 2.21364-47.829779-13.600269-67.483258-24.930584-30.923385-74.162062-36.216872-105.127425-11.286288l-2.336507 1.883949-34.387188-55.928712 169.003535-183.060457 63.621163 46.966644-77.965796 65.730366c-9.435103 7.953541-12.561025 21.131969-7.73443 32.486857 1.207161 2.8249 30.388916 69.280177 106.361208 71.776409 69.901675 2.045723 121.630409-21.91217 152.467787-42.083734L712.139888 494.723983l124.27101 127.479866c11.298575 10.419057 11.984578 28.082103 1.590094 39.35508zm-52.863199-172.391572l-34.381046-35.284112a25.601229 25.601229 0 0 0-3.427968-3.003056l-174.449581-128.651191c1.758011-9.184251-1.080199-19.035052-8.431696-25.871534-11.299598-10.544995-29.0722-9.900971-39.686819 1.453917-0.521158 0.534468-50.904507 53.660806-142.481834 50.656727-21.612171-0.712624-36.257827-11.409154-45.253684-21.228215l129.015694-108.774505 314.146448-35.092646L894.858368 372.343066 785.137793 489.167357z" fill="#196883" p-id="2455"></path></svg>