<?xml version="1.0" standalone="no"?><!DOCTYPE svg PUBLIC "-//W3C//DTD SVG 1.1//EN" "http://www.w3.org/Graphics/SVG/1.1/DTD/svg11.dtd"><svg t="1693887076607" class="icon" viewBox="0 0 1024 1024" version="1.1" xmlns="http://www.w3.org/2000/svg" p-id="7579" xmlns:xlink="http://www.w3.org/1999/xlink" width="200" height="200"><path d="M504 174.5c162.8 0 296.2 128.2 304.6 289h32c-3.9-84-38.5-162.4-98.3-222.3-44.7-44.7-99.7-75.2-159.6-89.5-3.5-40.4-37.4-72.2-78.7-72.2s-75.2 31.8-78.7 72.2c-59.9 14.3-114.9 44.8-159.6 89.5-59.9 59.9-94.4 138.3-98.3 222.3h32c8.4-160.8 141.8-289 304.6-289z m0-63c21.4 0 39.5 14.4 45.2 34-14.8-2-29.9-3-45.2-3s-30.3 1-45.2 3c5.7-19.6 23.8-34 45.2-34z" fill="#196883" p-id="7580"></path><path d="M273.5 621.5h235.3c9.2-2.6 19.2-3.5 27.8-4 9-0.5 20.6 0.8 35 4h249.9c2.5 0 5.1-0.6 7.3-1.8 0.8-0.4 19.6-10.3 38-32.5 16.7-20.3 36.7-55.4 36.7-107.7 0-8.8-7.2-16-16-16h-46.9c0.2 5.3 0.4 10.6 0.4 16 0 8.8-7.2 16-16 16h45.8c-2.6 27-11.9 50.6-27.7 70.2-10.4 12.9-20.9 20.6-26 23.8H190.9c-5-3.2-15.6-10.9-26-23.8-15.8-19.6-25.1-43.2-27.7-70.2H183c-8.8 0-16-7.2-16-16 0-5.4 0.1-10.7 0.4-16h-46.9c-8.8 0-16 7.2-16 16 0 52.3 19.9 87.4 36.7 107.7 18.4 22.3 37.2 32.1 38 32.5 2.3 1.2 4.8 1.8 7.3 1.8H245c11-2 22.5-0.8 28.5 0z" fill="#196883" p-id="7581"></path><path d="M183 495.5h642c8.8 0 16-7.2 16-16 0-5.4-0.1-10.7-0.4-16H167.4c-0.2 5.3-0.4 10.6-0.4 16 0 8.8 7.2 16 16 16z" fill="#196883" p-id="7582"></path><path d="M903.5 656.5h-126c-8.8 0-16 7.2-16 16v20.9c-18.6-8.5-46.5-21-76.6-33.3-48.3-19.7-85.8-32.5-113.3-38.6h-62.8c-12.3 3.4-23.3 9.7-27.9 21.6-4.9 12.6 0 27.5 13.2 40.7 7.7 7.7 44 30 77.2 49.7h-133c-7.3-3.8-27.2-20.6-42-33.1-49.9-42.2-90.6-74.7-121.9-78.7-0.3 0-0.7-0.1-1-0.1H245c-9.4 1.7-18.5 5.9-23.7 14.8-3.9 6.7-8.1 21.1 7.4 41.8 2.8 3.8 8.7 11.6 130.3 108.9 59.4 47.5 118 93.6 118.6 94.1 2.8 2.2 6.3 3.4 9.9 3.4h274v44c0 8.8 7.2 16 16 16h126c8.8 0 16-7.2 16-16v-256c0-8.9-7.2-16.1-16-16.1z m-142 196H493C404.7 783 265.5 671.9 254.2 658.8c-1.7-2.3-2.9-4.3-3.6-5.8 3.2-0.6 9.2-1 19.8 0.4 24.4 3.1 73.1 44.2 105.3 71.4 30 25.3 44.8 37.6 56.1 40.3 1.2 0.3 2.5 0.4 3.7 0.4h195c7.2 0 13.6-4.9 15.5-11.9s-1.2-14.4-7.5-18c-54.1-31.1-114.4-67.5-121.7-74.4-2.7-2.7-4.3-5.1-5.1-6.6 2.7-1.4 9.8-4.2 26.6-5.1 41-2.1 167.3 52.8 223.2 79.1v123.9z m126 60h-94v-224h94v224z m-350.8-295c-8.6 0.5-18.6 1.4-27.8 4h62.8c-14.4-3.1-26-4.5-35-4z m-291.7 4h28.5c-6-0.8-17.5-2-28.5 0z" fill="#196883" p-id="7583"></path></svg>